<svg id="Group_8903" data-name="Group 8903" xmlns="http://www.w3.org/2000/svg" xmlns:xlink="http://www.w3.org/1999/xlink" width="512.415" height="509.989" viewBox="0 0 512.415 509.989">
  <defs>
    <clipPath id="clip-path">
      <rect id="Rectangle_334" data-name="Rectangle 334" width="512.415" height="509.989" fill="none"/>
    </clipPath>
  </defs>
  <g id="Group_8902" data-name="Group 8902" clip-path="url(#clip-path)">
    <path id="Path_211" data-name="Path 211" d="M255.464,1.667S372.613-8.076,453.88,95.291l58.534-58.456V253.548l-217.5,2.644,65.3-67.515s-27.278-52.753-104.743-57.386c-.119-59.525,0-129.624,0-129.624" fill="#1c3aa9"/>
    <path id="Path_212" data-name="Path 212" d="M1.617,256.7S-7.3,139.48,96.645,58.948L38.607,0,255.314,1.537l1.1,217.518-67.05-65.774s-52.945,26.9-58.128,104.333c-59.524-.3-129.62-.919-129.62-.919" fill="#4285f4"/>
    <path id="Path_213" data-name="Path 213" d="M256.7,509.8S139.48,518.71,58.948,414.77L0,472.808,1.537,256.1,219.055,255l-65.774,67.05s26.9,52.945,104.333,58.127c-.3,59.525-.919,129.621-.919,129.621" fill="#ababab"/>
    <path id="Path_214" data-name="Path 214" d="M366.04,314.925l93.743,94.812S392.548,510.184,255.611,509.861c-1.135-70.9,0-129.831,0-129.831s69.8,8.321,110.429-65.105" fill="#ababab"/>
  </g>
</svg>
