<svg xmlns="http://www.w3.org/2000/svg" width="136.022" height="103.098" viewBox="0 0 136.022 103.098">
  <g id="Group_463" data-name="Group 463" transform="translate(-635 -194.429)">
    <g id="Group_219" data-name="Group 219" transform="translate(1054.194 112.696)" opacity="0.49">
      <g id="background">
        <g id="Group_4" data-name="Group 4">
          <g id="Group_3" data-name="Group 3">
            <path id="Path_2" data-name="Path 2" d="M-357.011,100.332c7.4,3.2,15.9,2.7,23.5.3,4.1-1.3,8.2-3,12.6-3s8.6,1.6,12.9,2.2c3.9.6,8.3.5,11.6-1.8.2-.1,0-.4-.2-.3-3.1,2.2-7.1,2.4-10.7,1.9-4.1-.6-8.1-2-12.3-2.3s-8.1,1-12,2.2a45.02,45.02,0,0,1-12,2.5,27.513,27.513,0,0,1-13.3-2.2c-.2.1-.3.4-.1.5Z" fill="#e8e8e8"/>
          </g>
        </g>
        <g id="Group_6" data-name="Group 6">
          <g id="Group_5" data-name="Group 5">
            <path id="Path_3" data-name="Path 3" d="M-418.911,127.032a16.277,16.277,0,0,1,8-3,15.533,15.533,0,0,1,4.3.2c1.5.3,2.9.8,4.3,1.2,2.6.9,5.2,1.6,7.9,1a23.153,23.153,0,0,0,6.6-3c2.5-1.4,5.1-2.8,7.9-3.1a.15.15,0,1,0,0-.3c-5.1.5-9,4.3-13.8,5.8a9.469,9.469,0,0,1-3.7.5,16.483,16.483,0,0,1-4.5-1.1,23.205,23.205,0,0,0-4.5-1.3,17.9,17.9,0,0,0-4-.2,17.289,17.289,0,0,0-8.7,3.1c-.2.1,0,.3.2.2Z" fill="#e8e8e8"/>
          </g>
        </g>
        <g id="Group_8" data-name="Group 8">
          <g id="Group_7" data-name="Group 7">
            <path id="Path_4" data-name="Path 4" d="M-390.511,131.132c4.2-4.4,10.3-6.2,16.2-6.3a49.872,49.872,0,0,1,10.2,1.2c3.2.7,6.3,1.6,9.6,1.1a31.059,31.059,0,0,0,9.8-3.5c.2-.1,0-.4-.2-.3a30.561,30.561,0,0,1-9.3,3.4,16.757,16.757,0,0,1-5,0c-1.7-.3-3.3-.7-5-1.1-6.1-1.3-12.7-1.8-18.7.3a19.376,19.376,0,0,0-7.9,5c-.1.2.2.4.3.2Z" fill="#e8e8e8"/>
          </g>
        </g>
        <g id="Group_10" data-name="Group 10">
          <g id="Group_9" data-name="Group 9">
            <path id="Path_5" data-name="Path 5" d="M-340.811,134.332c1.7.6,3.5,0,5.1-.7,1.8-.9,3.5-1.9,5.3-2.7a10.538,10.538,0,0,1,5.8-1,13.739,13.739,0,0,1,5.1,1.9c1.5.8,3,1.7,4.6,2.4a15.4,15.4,0,0,0,5.6,1c3.9-.1,7.3-2,10.9-3.4,3.4-1.2,7.8-1.8,10.5,1.1.1.2.4-.1.2-.2-2.1-2.3-5.5-2.5-8.4-1.9-3.8.8-7,3.1-10.8,3.8a16.173,16.173,0,0,1-6.2-.1,20.126,20.126,0,0,1-5.2-2.3,25.247,25.247,0,0,0-4.7-2.2,10.555,10.555,0,0,0-5.3-.1,26.579,26.579,0,0,0-6,2.6c-2,1.1-4.3,2.4-6.6,1.6,0-.1-.1.2.1.2Z" fill="#e8e8e8"/>
          </g>
        </g>
        <g id="Group_12" data-name="Group 12">
          <g id="Group_11" data-name="Group 11">
            <path id="Path_6" data-name="Path 6" d="M-312.511,139.532c4.4.3,8.1-2.7,12.3-3.7a9.758,9.758,0,0,1,3.4-.2,9.612,9.612,0,0,1,2.8,1.1c1.5.9,3,2.1,4.8,2.2,2.2.2,4.2-1.2,5.9-2.6.2-.1-.1-.4-.2-.2-1.6,1.3-3.6,2.6-5.8,2.4-1.9-.2-3.4-1.5-5-2.4-3.7-2.1-7.6-.4-11.1,1.1a16.241,16.241,0,0,1-7.1,1.8c-.2.2-.2.5,0,.5Z" fill="#e8e8e8"/>
          </g>
        </g>
        <g id="Group_14" data-name="Group 14">
          <g id="Group_13" data-name="Group 13">
            <path id="Path_7" data-name="Path 7" d="M-413.811,160.032a6.188,6.188,0,0,1,5.9-1.5c2.2.6,3.6,2.5,5.3,3.7,3.5,2.6,8.2,2.2,12,.6,4.5-1.8,8.2-5,12.7-6.8a15.151,15.151,0,0,1,6.9-1.3,12.224,12.224,0,0,1,6.1,2.5c1.8,1.3,3.5,2.9,5.7,3.8a8.18,8.18,0,0,0,7-.5c.2-.1,0-.4-.2-.3a8.056,8.056,0,0,1-7.1.3,25.623,25.623,0,0,1-5.1-3.5,11.919,11.919,0,0,0-5.7-2.6,14.852,14.852,0,0,0-6.6.8c-4.6,1.5-8.4,4.7-12.7,6.7-4,1.9-9.2,2.8-13-.1-1.9-1.4-3.4-3.4-5.8-3.9a6.485,6.485,0,0,0-5.8,1.7c0,.3.3.6.4.4Z" fill="#e8e8e8"/>
          </g>
        </g>
        <g id="Group_16" data-name="Group 16">
          <g id="Group_15" data-name="Group 15">
            <path id="Path_8" data-name="Path 8" d="M-372.611,166.032a9.808,9.808,0,0,1,6-1.5,20.505,20.505,0,0,1,5.5,1.6,25.176,25.176,0,0,0,5.3,1.7,12.225,12.225,0,0,0,5.7-.5,35.955,35.955,0,0,0,6.3-2.9c.2-.1,0-.4-.2-.3-3.7,2-7.8,4.1-12.1,3.3-3.6-.7-6.8-3-10.6-3.3a9.38,9.38,0,0,0-6.1,1.6c-.1.2.1.4.2.3Z" fill="#e8e8e8"/>
          </g>
        </g>
        <g id="Group_18" data-name="Group 18">
          <g id="Group_17" data-name="Group 17">
            <path id="Path_9" data-name="Path 9" d="M-332.111,173.332a18.919,18.919,0,0,1,8.3-4.6,19.725,19.725,0,0,1,4.8-.6,49.265,49.265,0,0,1,5.4.5,23.033,23.033,0,0,0,10.1-1.5c3.1-1.2,6.1-3.3,9.4-3.8,3.9-.6,7,2,9.5,4.7.1.2.4-.1.2-.2-2.1-2.2-4.5-4.5-7.6-4.8-3.4-.4-6.6,1.6-9.5,3a22.954,22.954,0,0,1-10.9,2.5c-1.9-.1-3.8-.5-5.7-.5a15.36,15.36,0,0,0-4.8.4,18.992,18.992,0,0,0-9.4,4.9c-.1-.1.1.1.2,0Z" fill="#e8e8e8"/>
          </g>
        </g>
        <g id="Group_20" data-name="Group 20">
          <g id="Group_19" data-name="Group 19">
            <path id="Path_10" data-name="Path 10" d="M-307.911,112.932c3.1-1.2,6.4.5,9.5.8a13.951,13.951,0,0,0,5-.4,42.089,42.089,0,0,1,4.8-1.2,7.261,7.261,0,0,1,5.2.8c.2.1.3-.2.2-.3-2.7-1.8-6-.8-8.9,0a16.845,16.845,0,0,1-5.4.8,43.39,43.39,0,0,1-5.2-.9,9.206,9.206,0,0,0-5.2.1c-.3,0-.2.3,0,.3Z" fill="#161616"/>
          </g>
        </g>
        <g id="Group_22" data-name="Group 22">
          <g id="Group_21" data-name="Group 21">
            <path id="Path_11" data-name="Path 11" d="M-417.211,145.432c2.7-2.4,6.6-.3,9.6.2,3.5.5,7-.4,10.3-1.4.2-.1.1-.4-.1-.3-3.7,1-7.5,2-11.3,1.1-2.8-.7-6.2-2.1-8.7.1-.2.2,0,.5.2.3Z" fill="#161616"/>
          </g>
        </g>
        <g id="Group_24" data-name="Group 24">
          <g id="Group_23" data-name="Group 23">
            <path id="Path_12" data-name="Path 12" d="M-382.911,175.632a4.07,4.07,0,0,1,3.6-1.4,8.265,8.265,0,0,1,2.2.8,6.356,6.356,0,0,0,1.8.6,13.661,13.661,0,0,0,8-.3c.2-.1.1-.4-.1-.3a12.962,12.962,0,0,1-8.9-.1,8.373,8.373,0,0,0-3.8-1.1,4.168,4.168,0,0,0-3,1.5c-.2.2,0,.4.2.3Z" fill="#161616"/>
          </g>
        </g>
        <g id="Group_26" data-name="Group 26">
          <g id="Group_25" data-name="Group 25">
            <path id="Path_13" data-name="Path 13" d="M-364.711,174.732a20.646,20.646,0,0,1,6-.8.15.15,0,1,0,0-.3,24.894,24.894,0,0,0-6.1.8c-.2,0-.1.3.1.3Z" fill="#161616"/>
          </g>
        </g>
        <g id="Group_28" data-name="Group 28">
          <g id="Group_27" data-name="Group 27">
            <path id="Path_14" data-name="Path 14" d="M-362.111,91.332a60.6,60.6,0,0,1,5.4,4.7c.2.1.4-.1.2-.2a48.8,48.8,0,0,0-5.5-4.7c-.1-.2-.3.1-.1.2Z" fill="#161616"/>
          </g>
        </g>
        <g id="Group_30" data-name="Group 30">
          <g id="Group_29" data-name="Group 29">
            <path id="Path_15" data-name="Path 15" d="M-380.711,96.932l.6-3c0-.2-.3-.3-.3-.1l-.6,3c-.1.3.2.3.3.1Z" fill="#161616"/>
          </g>
        </g>
      </g>
      <g id="details">
        <circle id="Ellipse_1" data-name="Ellipse 1" cx="0.6" cy="0.6" r="0.6" transform="translate(-319.511 102.132)" fill="#282828"/>
        <circle id="Ellipse_2" data-name="Ellipse 2" cx="0.7" cy="0.7" r="0.7" transform="translate(-400.911 153.332)" fill="#282828"/>
        <circle id="Ellipse_3" data-name="Ellipse 3" cx="1.7" cy="1.7" r="1.7" transform="translate(-405.411 84.332)" fill="#282828"/>
        <circle id="Ellipse_4" data-name="Ellipse 4" cx="0.6" cy="0.6" r="0.6" transform="translate(-400.911 88.132)" fill="#282828"/>
        <circle id="Ellipse_5" data-name="Ellipse 5" cx="1.3" cy="1.3" r="1.3" transform="translate(-369.211 182.232)" fill="#282828"/>
        <circle id="Ellipse_6" data-name="Ellipse 6" cx="1.1" cy="1.1" r="1.1" transform="translate(-310.111 87.732)" fill="#282828"/>
        <circle id="Ellipse_7" data-name="Ellipse 7" cx="0.7" cy="0.7" r="0.7" transform="translate(-308.311 86.032)" fill="#282828"/>
        <circle id="Ellipse_8" data-name="Ellipse 8" cx="1.7" cy="1.7" r="1.7" transform="translate(-403.711 82.532)" fill="#7c7c7c"/>
        <circle id="Ellipse_9" data-name="Ellipse 9" cx="0.8" cy="0.8" r="0.8" transform="translate(-403.711 154.132)" fill="#7c7c7c"/>
        <circle id="Ellipse_10" data-name="Ellipse 10" cx="0.8" cy="0.8" r="0.8" transform="translate(-373.911 180.732)" fill="#7c7c7c"/>
        <circle id="Ellipse_11" data-name="Ellipse 11" cx="1.8" cy="1.8" r="1.8" transform="translate(-314.911 82.532)" fill="#7c7c7c"/>
        <circle id="Ellipse_12" data-name="Ellipse 12" cx="0.4" cy="0.4" r="0.4" transform="translate(-342.911 112.232)" fill="#7c7c7c"/>
        <g id="Group_32" data-name="Group 32">
          <g id="Group_31" data-name="Group 31">
            <path id="Path_16" data-name="Path 16" d="M-346.411,90.032a11.11,11.11,0,0,1-.7,1.6c-.1.2.2.3.3.1a11.11,11.11,0,0,1,.7-1.6c.1-.2-.2-.3-.3-.1Z" fill="#969696"/>
          </g>
        </g>
        <g id="Group_34" data-name="Group 34">
          <g id="Group_33" data-name="Group 33">
            <path id="Path_17" data-name="Path 17" d="M-346.511,90.332a4.2,4.2,0,0,1,.9,1.4c.1.2.4.1.3-.1a5.372,5.372,0,0,0-1-1.6c-.1-.1-.3.1-.2.3Z" fill="#969696"/>
          </g>
        </g>
        <g id="Group_36" data-name="Group 36">
          <g id="Group_35" data-name="Group 35">
            <path id="Path_18" data-name="Path 18" d="M-347.011,91.932a9.062,9.062,0,0,0,1.1,1.6c.1.2.4,0,.3-.2a15.257,15.257,0,0,1-1.1-1.6c-.1-.2-.4,0-.3.2Z" fill="#969696"/>
          </g>
        </g>
        <g id="Group_38" data-name="Group 38">
          <g id="Group_37" data-name="Group 37">
            <path id="Path_19" data-name="Path 19" d="M-345.511,91.732a11.627,11.627,0,0,1-.4,1.8c0,.2.3.3.3.1a11.626,11.626,0,0,1,.4-1.8c0-.2-.3-.3-.3-.1Z" fill="#969696"/>
          </g>
        </g>
        <g id="Group_40" data-name="Group 40">
          <g id="Group_39" data-name="Group 39">
            <path id="Path_20" data-name="Path 20" d="M-316.211,135.932a4.424,4.424,0,0,0-.5,1.5c0,.2.3.3.3.1a3.36,3.36,0,0,1,.5-1.4c.1-.2-.2-.3-.3-.2Z" fill="#969696"/>
          </g>
        </g>
        <g id="Group_42" data-name="Group 42">
          <g id="Group_41" data-name="Group 41">
            <path id="Path_21" data-name="Path 21" d="M-316.211,136.032c.2.6.5,1.1.7,1.6.1.2.4,0,.3-.2a7.742,7.742,0,0,1-.7-1.6c-.1,0-.4.1-.3.2Z" fill="#969696"/>
          </g>
        </g>
        <g id="Group_44" data-name="Group 44">
          <g id="Group_43" data-name="Group 43">
            <path id="Path_22" data-name="Path 22" d="M-316.811,137.732c.3.4.5.8.8,1.2.1.2.4,0,.3-.2-.3-.4-.5-.8-.8-1.2-.1-.1-.4,0-.3.2Z" fill="#969696"/>
          </g>
        </g>
        <g id="Group_46" data-name="Group 46">
          <g id="Group_45" data-name="Group 45">
            <path id="Path_23" data-name="Path 23" d="M-315.611,137.632a1.929,1.929,0,0,0-.3,1,.15.15,0,0,0,.3,0,1.613,1.613,0,0,1,.3-.9c.1-.1-.2-.2-.3-.1Z" fill="#969696"/>
          </g>
        </g>
        <g id="Group_48" data-name="Group 48">
          <g id="Group_47" data-name="Group 47">
            <path id="Path_24" data-name="Path 24" d="M-405.911,166.332c-.3.6-.6,1.3-.9,1.9-.1.2.2.4.3.2.3-.6.6-1.3.9-1.9,0-.2-.2-.4-.3-.2Z" fill="#969696"/>
          </g>
        </g>
        <g id="Group_50" data-name="Group 50">
          <g id="Group_49" data-name="Group 49">
            <path id="Path_25" data-name="Path 25" d="M-405.911,166.432a16.671,16.671,0,0,1,.8,2c.1.2.4.1.3-.1a16.672,16.672,0,0,1-.8-2c-.1-.2-.4-.1-.3.1Z" fill="#969696"/>
          </g>
        </g>
        <g id="Group_52" data-name="Group 52">
          <g id="Group_51" data-name="Group 51">
            <path id="Path_26" data-name="Path 26" d="M-406.911,168.532c.3.6.6,1.1.9,1.7a.187.187,0,0,0,.3,0c.2-.2.3-.5.5-.7.2-.3.3-.7.5-1,.1-.2-.2-.3-.3-.2-.2.3-.3.6-.5.9a1.374,1.374,0,0,1-.5.8h.3c-.3-.6-.6-1.1-.9-1.7-.1-.1-.4,0-.3.2Z" fill="#969696"/>
          </g>
        </g>
        <g id="Group_54" data-name="Group 54">
          <g id="Group_53" data-name="Group 53">
            <path id="Path_27" data-name="Path 27" d="M-298.011,116.532a6.637,6.637,0,0,0-.6,2,.15.15,0,1,0,.3,0,4.78,4.78,0,0,1,.6-1.8c.1-.3-.2-.4-.3-.2Z" fill="#969696"/>
          </g>
        </g>
        <g id="Group_56" data-name="Group 56">
          <g id="Group_55" data-name="Group 55">
            <path id="Path_28" data-name="Path 28" d="M-298.011,116.832c.3.6.7,1.3,1,1.9.1.2.4,0,.3-.2-.3-.6-.7-1.3-1-1.9-.1-.1-.4,0-.3.2Z" fill="#969696"/>
          </g>
        </g>
        <g id="Group_58" data-name="Group 58">
          <g id="Group_57" data-name="Group 57">
            <path id="Path_29" data-name="Path 29" d="M-298.611,118.532a16.178,16.178,0,0,0,1,1.8c.1.2.4,0,.3-.2a5.559,5.559,0,0,1-.9-1.7c-.1-.2-.5-.1-.4.1Z" fill="#969696"/>
          </g>
        </g>
        <g id="Group_60" data-name="Group 60">
          <g id="Group_59" data-name="Group 59">
            <path id="Path_30" data-name="Path 30" d="M-297.111,118.632a12.09,12.09,0,0,0-.5,1.8c0,.2.3.3.3.1a12.093,12.093,0,0,1,.5-1.8c.1-.2-.3-.3-.3-.1Z" fill="#969696"/>
          </g>
        </g>
        <g id="Group_62" data-name="Group 62">
          <g id="Group_61" data-name="Group 61">
            <path id="Path_31" data-name="Path 31" d="M-299.211,168.532a9.291,9.291,0,0,1-.4,1.3c-.1.2.2.3.3.1a9.291,9.291,0,0,1,.4-1.3c.1-.2-.2-.3-.3-.1Z" fill="#969696"/>
          </g>
        </g>
        <g id="Group_64" data-name="Group 64">
          <g id="Group_63" data-name="Group 63">
            <path id="Path_32" data-name="Path 32" d="M-299.211,168.832c.2.4.4.9.6,1.3.1.2.4,0,.3-.2-.2-.4-.4-.9-.6-1.3-.1-.2-.4,0-.3.2Z" fill="#969696"/>
          </g>
        </g>
        <g id="Group_66" data-name="Group 66">
          <g id="Group_65" data-name="Group 65">
            <path id="Path_33" data-name="Path 33" d="M-299.511,170.032a2.091,2.091,0,0,0,.7,1.3c.1.2.4-.1.2-.2a2.725,2.725,0,0,1-.6-1.2c0-.2-.3-.1-.3.1Z" fill="#969696"/>
          </g>
        </g>
        <g id="Group_68" data-name="Group 68">
          <g id="Group_67" data-name="Group 67">
            <path id="Path_34" data-name="Path 34" d="M-298.711,170.032a6.752,6.752,0,0,0-.2,1.4.15.15,0,0,0,.3,0,2.954,2.954,0,0,1,.2-1.3c.1-.2-.2-.3-.3-.1Z" fill="#969696"/>
          </g>
        </g>
        <g id="Group_78" data-name="Group 78">
          <g id="Group_77" data-name="Group 77">
            <path id="Path_39" data-name="Path 39" d="M-329.111,121.832a1.23,1.23,0,0,1,1.1-.7c.4,0,.7.3,1,.4.6.2.8-.2,1.2-.5.6-.4,1.2.5,1.9.5.4,0,.7-.2.7-.6a.349.349,0,0,0-.2.1c.3.2.7.3,1,.5.2.1.3-.2.2-.3-.3-.2-.7-.3-1-.5-.1-.1-.2,0-.2.1,0,.8-1.5-.3-1.8-.4-.6-.1-.9.7-1.4.6-.6-.1-.9-.5-1.6-.4a1.548,1.548,0,0,0-1.1.8c-.2.4.1.6.2.4Z" fill="#727272"/>
          </g>
        </g>
        <g id="Group_80" data-name="Group 80">
          <g id="Group_79" data-name="Group 79">
            <path id="Path_40" data-name="Path 40" d="M-325.011,119.732c.5-.5,1.2.1,1.8.2s1.1-.6,1.7-.3c.5.3,1.4,1,1.8.1.1-.2-.2-.3-.3-.1-.3.6-1.2-.2-1.5-.4-.4-.2-.7,0-1.1.2a1.262,1.262,0,0,1-1.2-.1,1.421,1.421,0,0,0-.6-.2,1.1,1.1,0,0,0-.9.3.221.221,0,0,0,.3.3Z" fill="#727272"/>
          </g>
        </g>
        <g id="Group_82" data-name="Group 82">
          <g id="Group_81" data-name="Group 81">
            <path id="Path_41" data-name="Path 41" d="M-333.711,94.332c.2-.3.3-.4.5-.2.1,0,.2.1.3.1s.2.1.3.1a.454.454,0,0,0,.5,0c.5-.1.7-.7,1.2-.7s.8.5,1.3.2c.2-.1.3-.3.5-.4a1.062,1.062,0,0,1,1.3.2c.2.1.4-.1.2-.2a1.514,1.514,0,0,0-1.7-.2c-.2.1-.5.4-.8.4-.2,0-.3-.2-.5-.2a1.1,1.1,0,0,0-.8,0c-.3.2-.5.6-.9.6-.5.1-.8-.4-1.2-.4s-.9.4-.6.8c.2.3.5.1.4-.1Z" fill="#757575"/>
          </g>
        </g>
        <g id="Group_84" data-name="Group 84">
          <g id="Group_83" data-name="Group 83">
            <path id="Path_42" data-name="Path 42" d="M-330.211,92.432c.1-.7,1.3,0,1.8-.1a1.493,1.493,0,0,0,.7-.3,1.287,1.287,0,0,1,1.2.1c.2.1.3-.2.2-.3a1.929,1.929,0,0,0-1-.3c-.2,0-.3.1-.5.1-.4.2-.6.4-1.1.3s-1.4-.4-1.5.4c-.1.3.2.3.2.1Z" fill="#757575"/>
          </g>
        </g>
        <g id="Group_86" data-name="Group 86">
          <g id="Group_85" data-name="Group 85">
            <path id="Path_43" data-name="Path 43" d="M-411.411,131.232c.1-.7,1.1.2,1.3.4a1.445,1.445,0,0,0,.7.2c.3-.1.6-.3.9-.4a2.026,2.026,0,0,1,1.5.4c.2.2.4-.1.2-.2a2.281,2.281,0,0,0-1.2-.6,1.7,1.7,0,0,0-.7.1c-.4.1-.6.5-1.1.3s-.6-.6-1.1-.7a.67.67,0,0,0-.7.4c-.1.2.2.3.2.1Z" fill="#757575"/>
          </g>
        </g>
        <g id="Group_88" data-name="Group 88">
          <g id="Group_87" data-name="Group 87">
            <path id="Path_44" data-name="Path 44" d="M-407.811,130.432c.2-.3,1.3.3,1.6.4a7.568,7.568,0,0,0,1.5.1c.2,0,.1-.3-.1-.3a4.878,4.878,0,0,1-2.4-.4c-.4-.1-.7-.2-1,.1,0,.1.3.3.4.1Z" fill="#757575"/>
          </g>
        </g>
        <g id="Group_90" data-name="Group 90">
          <g id="Group_89" data-name="Group 89">
            <path id="Path_45" data-name="Path 45" d="M-381.711,152.932a.812.812,0,0,1,.8-.4c.3,0,.5.2.7.2a.878.878,0,0,0,.7-.1c.4-.3.6-.6,1.2-.6a4.424,4.424,0,0,1,1.5.5c.2.1.3-.2.2-.3-.8-.4-1.9-.8-2.7-.1-.2.2-.2.2-.5.2-.3.1-.3,0-.5-.1a1.268,1.268,0,0,0-.6-.1,1.149,1.149,0,0,0-.9.6c-.2.2,0,.4.1.2Z" fill="#757575"/>
          </g>
        </g>
        <g id="Group_92" data-name="Group 92">
          <g id="Group_91" data-name="Group 91">
            <path id="Path_46" data-name="Path 46" d="M-378.111,153.632c.5-.4,1.5.5,2.1.4.4-.1.5-.3.8-.6a1.377,1.377,0,0,1,1.8-.2c.2.1.3-.2.2-.3a1.4,1.4,0,0,0-1.4-.2l-.6.3c-.3.2-.4.6-.8.7-.8.1-1.5-1-2.3-.3-.2.1.1.3.2.2Z" fill="#757575"/>
          </g>
        </g>
        <g id="Group_94" data-name="Group 94">
          <g id="Group_93" data-name="Group 93">
            <path id="Path_47" data-name="Path 47" d="M-392.711,84.732a1.242,1.242,0,0,1,.6-.8c.3-.1.5,0,.9-.1a1.02,1.02,0,0,0,.8-.5c.3-.4.5-.8,1-1a2.257,2.257,0,0,1,1.6-.2c.2.1.3-.2.1-.3a2.476,2.476,0,0,0-2.7,1c-.2.3-.4.7-.9.7a2.152,2.152,0,0,0-.8,0,1.475,1.475,0,0,0-.9,1c-.1.4.2.4.3.2Z" fill="#757575"/>
          </g>
        </g>
        <g id="Group_96" data-name="Group 96">
          <g id="Group_95" data-name="Group 95">
            <path id="Path_48" data-name="Path 48" d="M-391.211,86.032c-.5-1.2,1.7-1.2,2.4-1.4a9.8,9.8,0,0,0,2.2-1.3c.2-.1,0-.4-.2-.3a13.028,13.028,0,0,1-1.5,1,6.637,6.637,0,0,1-2,.6c-.7.1-1.7.6-1.4,1.5.3.1.6.1.5-.1Z" fill="#757575"/>
          </g>
        </g>
      </g>
      <g id="rocket">
        <g id="fire">
          <path id="Path_49" data-name="Path 49" d="M-348.411,147.532a15.262,15.262,0,0,1,3.6-5c1.9-1.9,5.4-5.4,8.9-4.9,3,.5,2.7,3.4,6.8,5.5,3.9,2,5.4,0,9.3,2.2.6.3,4.7,2.6,5.6,7,.4,1.8.3,4.3-.5,4.6-.9.3-1.2-5-4.9-7-2.8-1.6-6.6-.8-6.9.3-.3,1.2,3.5,2,5.7,6.1a12.964,12.964,0,0,1,1.4,5.7c.3,2.1.6,6.5-.4,6.7-.8.2-1.3-2.7-4.2-5.1-1.6-1.3-3.3-1.8-6.6-2.8-3-.9-4.6-1.4-5.4-.6-1.2,1.1-.3,3.9-.1,4.5,1.2,3.6,4.3,5.1,4,5.5-.3.5-5.9-.9-10.5-5.4C-346.411,161.032-350.811,153.732-348.411,147.532Z" fill="#515151"/>
          <path id="Path_50" data-name="Path 50" d="M-313.411,159.932c0,.3-.3,2,.7,3,1.1,1.2,2.4.3,3.8,1.4,1.2,1.1,1.1,2.7,1.4,2.6.4,0,1.1-2.2.2-3.5a7.518,7.518,0,0,0-2.4-1.5c-1.4-.8-1.6-.7-2-1.1-.9-1-.8-2.3-1.1-2.3C-313.111,158.632-313.311,159.332-313.411,159.932Z" fill="#515151"/>
          <path id="Path_51" data-name="Path 51" d="M-322.611,172.532a4.86,4.86,0,0,0-.5,2.9,4.407,4.407,0,0,0,.7,2.6c.7.9,1.9,1.2,2,1s-.4-.6-.9-1.4a5.332,5.332,0,0,1-.7-3c0-1.9,1.2-3.1.9-3.3C-321.311,171.232-322.111,171.832-322.611,172.532Z" fill="#515151"/>
          <g id="Group_98" data-name="Group 98">
            <g id="Group_97" data-name="Group 97">
              <path id="Path_52" data-name="Path 52" d="M-318.311,154.732c1.8,1.2.8,3.9,2,5.6.1.2.4,0,.3-.2-1.2-1.7-.2-4.4-2.1-5.7-.2-.1-.4.2-.2.3Z" fill="#989899"/>
            </g>
          </g>
          <g id="Group_100" data-name="Group 100">
            <g id="Group_99" data-name="Group 99">
              <path id="Path_53" data-name="Path 53" d="M-319.011,147.032a10.414,10.414,0,0,1,3.8,6c0,.2.4.1.3-.1a11,11,0,0,0-3.9-6.1c-.2-.3-.3,0-.2.2Z" fill="#989899"/>
            </g>
          </g>
          <g id="Group_102" data-name="Group 102">
            <g id="Group_101" data-name="Group 101">
              <path id="Path_54" data-name="Path 54" d="M-325.211,152.932a12.349,12.349,0,0,1,3.5,4.7c.1.2.4.1.3-.1a12.512,12.512,0,0,0-3.6-4.9c-.1-.1-.3.2-.2.3Z" fill="#989899"/>
            </g>
          </g>
          <g id="Group_104" data-name="Group 104">
            <g id="Group_103" data-name="Group 103">
              <path id="Path_55" data-name="Path 55" d="M-320.911,159.432a10.547,10.547,0,0,1,.6,2.4.15.15,0,0,0,.3,0,11.365,11.365,0,0,0-.6-2.5c-.1-.2-.4-.1-.3.1Z" fill="#989899"/>
            </g>
          </g>
          <g id="Group_106" data-name="Group 106">
            <g id="Group_105" data-name="Group 105">
              <path id="Path_56" data-name="Path 56" d="M-337.411,161.232a6.25,6.25,0,0,0,.9,4.6c.1.2.4,0,.3-.2a6.784,6.784,0,0,1-.9-4.4c0-.1-.3-.2-.3,0Z" fill="#989899"/>
            </g>
          </g>
          <g id="Group_108" data-name="Group 108">
            <g id="Group_107" data-name="Group 107">
              <path id="Path_57" data-name="Path 57" d="M-336.111,166.732a8.961,8.961,0,0,0,1.5,1.9c.2.1.4-.1.2-.2a6.228,6.228,0,0,1-1.4-1.8c-.1-.2-.4-.1-.3.1Z" fill="#989899"/>
            </g>
          </g>
          <g id="Group_110" data-name="Group 110">
            <g id="Group_109" data-name="Group 109">
              <path id="Path_58" data-name="Path 58" d="M-348.411,150.432a7.687,7.687,0,0,0,.3,3c.1.2.4.1.3-.1a7.2,7.2,0,0,1-.3-2.9.15.15,0,1,0-.3,0Z" fill="#989899"/>
            </g>
          </g>
          <g id="Group_112" data-name="Group 112">
            <g id="Group_111" data-name="Group 111">
              <path id="Path_59" data-name="Path 59" d="M-347.811,154.532a9.173,9.173,0,0,0,.9,2.3c.1.2.4,0,.3-.2a7.886,7.886,0,0,1-.9-2.3c0-.1-.3,0-.3.2Z" fill="#989899"/>
            </g>
          </g>
        </g>
        <g id="rocket-2" data-name="rocket">
          <path id="Path_60" data-name="Path 60" d="M-375.811,87.432a22.459,22.459,0,0,0-1,3.3,36.04,36.04,0,0,0-1.1,10,39.877,39.877,0,0,0,1.9,11.2,55.057,55.057,0,0,0,3.9,10.3,87.767,87.767,0,0,0,8.1,13.3c.9,1.2,2,2.7,2,2.7.8,1.1,1.5,2,2,2.7a5.557,5.557,0,0,0,1.6,1.4,8.957,8.957,0,0,0,3.3,1.6l4.2-3.6c.6.6,1.3,1.2,1.9,1.8.9-.9,1.7-1.6,2.3-2.1a35,35,0,0,1,5.4-3.8,9.746,9.746,0,0,1,1.1-.5l-1.2-2.4a21.055,21.055,0,0,1,2.2-1.7,22.3,22.3,0,0,1,3.2-1.9,10.242,10.242,0,0,0-.7-3.8,9.555,9.555,0,0,0-1.2-2.2c-2.5-3.6,4.8,6.3-4.7-7.3-3.7-5.3-5.5-7.9-6.4-9-2.6-3.5-4.7-5.8-6.2-7.5a55.314,55.314,0,0,0-5.1-5.3,31.811,31.811,0,0,0-5.3-3.8,26.384,26.384,0,0,0-4.5-1.8C-372.611,88.232-374.511,87.732-375.811,87.432Z" fill="#fff"/>
          <g id="Group_114" data-name="Group 114">
            <g id="Group_113" data-name="Group 113">
              <path id="Path_61" data-name="Path 61" d="M-376.111,87.632a42.883,42.883,0,0,0-.7,22.2,36.806,36.806,0,0,0,1.6,5.4c.3.9.7,1.8,1,2.7a3.179,3.179,0,0,0,.3.9c.2.5.4,1,.6,1.4.4.9.8,1.8,1.3,2.7.4.9,1,1.7,1.4,2.6.2.3.3.7.5,1,.2.4.6.7.8,1.1.5.8,1,1.7,1.5,2.5a103.142,103.142,0,0,0,7.8,10.9c.1.2.4-.1.2-.2-2.4-3.1-4.8-6.2-6.9-9.5-.5-.8-1-1.6-1.5-2.5-.2-.4-.5-.8-.7-1.2a7.566,7.566,0,0,0-.8-1.1c-.2-.3-.3-.7-.5-1-.2-.5-.5-.9-.7-1.3-.5-.8-.9-1.7-1.3-2.5q-.6-1.35-1.2-2.7c-.2-.4-.2-.8-.4-1.2a6.943,6.943,0,0,1-.5-1.3,46.768,46.768,0,0,1-1.7-5.3,45.693,45.693,0,0,1-1.5-11.1,38.236,38.236,0,0,1,1.8-12.5c-.1-.1-.4-.2-.4,0Z"/>
            </g>
          </g>
          <g id="Group_116" data-name="Group 116">
            <g id="Group_115" data-name="Group 115">
              <path id="Path_62" data-name="Path 62" d="M-376.011,87.632a19.776,19.776,0,0,1,5.3,1.4,25.838,25.838,0,0,1,4.8,2.1,43.165,43.165,0,0,1,8.2,6.6,93.038,93.038,0,0,1,7,8.3c2.2,2.8,4.3,5.8,6.4,8.7,2.3,3.3,4.4,6.7,6.5,10,.1.2.4,0,.3-.2-3.9-6.2-7.9-12.3-12.4-18.1-4.3-5.6-9-11.3-15-15.1a35.43,35.43,0,0,0-5.2-2.5,19.857,19.857,0,0,0-5.8-1.5c-.3,0-.3.3-.1.3Z"/>
            </g>
          </g>
          <g id="Group_118" data-name="Group 118">
            <g id="Group_117" data-name="Group 117">
              <path id="Path_63" data-name="Path 63" d="M-359.711,141.032a85.667,85.667,0,0,1,16.7-13.3c1.7-1.1,3.5-2,5.2-3,.2-.1,0-.4-.2-.3a91.717,91.717,0,0,0-17.6,12.1c-1.5,1.4-3,2.8-4.4,4.2a.221.221,0,0,0,.3.3Z"/>
            </g>
          </g>
          <g id="Group_120" data-name="Group 120">
            <g id="Group_119" data-name="Group 119">
              <path id="Path_64" data-name="Path 64" d="M-360.011,141.232a9.9,9.9,0,0,0,4.8,2.9c.2.1.3-.3.1-.3a9.887,9.887,0,0,1-4.7-2.8c-.1-.2-.4.1-.2.2Z"/>
            </g>
          </g>
          <g id="Group_122" data-name="Group 122">
            <g id="Group_121" data-name="Group 121">
              <path id="Path_65" data-name="Path 65" d="M-337.811,124.832a11.583,11.583,0,0,1,1.4,4.8.15.15,0,0,0,.3,0,10.784,10.784,0,0,0-1.5-4.9c0-.2-.3-.1-.2.1Z"/>
            </g>
          </g>
          <g id="Group_124" data-name="Group 124">
            <g id="Group_123" data-name="Group 123">
              <path id="Path_66" data-name="Path 66" d="M-355.011,144.032a130.546,130.546,0,0,1,18.8-14.2c.2-.1,0-.4-.2-.3a129.641,129.641,0,0,0-18.9,14.2c-.1.2.1.5.3.3Z"/>
            </g>
          </g>
          <g id="Group_126" data-name="Group 126">
            <g id="Group_125" data-name="Group 125">
              <path id="Path_67" data-name="Path 67" d="M-351.011,140.632c.6.6,1.2,1.2,1.8,1.7.1.1.2.1.2,0a29.63,29.63,0,0,1,5.8-4.8c.5-.3,1-.6,1.6-.9.3-.2,1-.4,1.2-.7.2-.4-.1-.9-.3-1.2-.3-.5-.7-1.1-1-1.5-.1-.2-.4.1-.2.2a7.835,7.835,0,0,1,1,1.5.758.758,0,0,1,.2.4c0,.2-.1.4-.1.6-.1,0-.1.1-.2.1a2.507,2.507,0,0,1-.7.4c-.9.5-1.8,1.1-2.7,1.7a30.713,30.713,0,0,0-4.7,4.1h.2c-.6-.6-1.2-1.2-1.8-1.7-.2-.3-.4-.1-.3.1Z"/>
            </g>
          </g>
          <g id="Group_128" data-name="Group 128">
            <g id="Group_127" data-name="Group 127">
              <path id="Path_68" data-name="Path 68" d="M-375.411,114.132a64.523,64.523,0,0,1,8.9-8.4,48.542,48.542,0,0,1,10.2-6.7c.2-.1,0-.4-.2-.3a48.811,48.811,0,0,0-10.1,6.6,60.386,60.386,0,0,0-9,8.5c-.1.3.1.5.2.3Z"/>
            </g>
          </g>
          <g id="Group_130" data-name="Group 130">
            <g id="Group_129" data-name="Group 129">
              <path id="Path_69" data-name="Path 69" d="M-356.211,100.632c-.4,0-.5-.6-.1-.6a.758.758,0,0,1,.4.2c0,.2-.1.4-.3.4s-.2.3-.1.3a.645.645,0,0,0,.6-.6.441.441,0,0,0-.6-.4.536.536,0,0,0-.5.5.5.5,0,0,0,.6.5c.2-.1.2-.3,0-.3Z"/>
            </g>
          </g>
          <g id="Group_132" data-name="Group 132">
            <g id="Group_131" data-name="Group 131">
              <path id="Path_70" data-name="Path 70" d="M-339.811,124.332h0v-.3c0-.1.1-.1.2-.2s.3,0,.3.2a.225.225,0,0,1-.4.2c-.1-.1-.3,0-.2.1.1.3.6.3.8.1a.5.5,0,0,0-.3-.8.5.5,0,0,0-.6.6c0,.1.2.3.2.1.2-.1.1-.3-.1-.2-.1,0,0,.3.1.2Z"/>
            </g>
          </g>
          <path id="Path_71" data-name="Path 71" d="M-375.811,87.532a54.938,54.938,0,0,1,6.5,4.9,61.515,61.515,0,0,1,10.6,11.9c5.5,7.6,8.2,11.3,8.8,15.6.3,2.2.7,8.5-4.9,16.2,2.3-1.7,4.6-3.5,6.9-5.2,1,1.6,2,3.3,3,4.9-1.1.8-2.1,1.6-3.2,2.4.5.6,1.1,1.3,1.6,1.9a15.51,15.51,0,0,1,2.3-1.9,35.015,35.015,0,0,1,3.8-2.3c-.4-.8-.8-1.7-1.3-2.5,1.8-1.2,3.7-2.4,5.5-3.6a13.848,13.848,0,0,0-.9-3.7,14.978,14.978,0,0,0-1.9-3.3c-2.4-3.3-1.2-2.5-6.3-9.5a133.424,133.424,0,0,0-8.8-11.6,44.185,44.185,0,0,0-5.6-5.8,33.249,33.249,0,0,0-9.4-6.3A19.841,19.841,0,0,0-375.811,87.532Z" fill="#494949" opacity="0.15" style="isolation: isolate"/>
          <path id="Path_72" data-name="Path 72" d="M-341.311,118.632a11.734,11.734,0,0,1-.8,2.9c-1.1,2.8-2.8,4-6.4,7.6-1.7,1.7-4.2,4.3-4,4.5.2.3,3-1.9,7.8-5,2.8-1.9,5.2-3.3,6.7-4.3Q-339.661,121.632-341.311,118.632Z" fill="#494949" opacity="0.11" style="isolation: isolate"/>
          <path id="Path_73" data-name="Path 73" d="M-337.711,124.732c-.2,0,.2,1.2-.2,2.7-.3,1.1-.9,1.6-2.2,3.2-.6.7-1.4,1.7-2.4,3.1,2.1-1.4,4.2-2.9,6.3-4.3C-337.311,125.632-337.611,124.732-337.711,124.732Z" fill="#494949" opacity="0.08" style="isolation: isolate"/>
        </g>
      </g>
      <g id="guy">
        <g id="leg_right" data-name="leg right">
          <path id="Path_74" data-name="Path 74" d="M-355.911,159.832a3.178,3.178,0,0,0,.3.9,6.675,6.675,0,0,0,3,2.4,26.677,26.677,0,0,0-1.1,4.8c-.3,1.9-.7,4.2-.2,4.4.2.1.6-.1,5-8.8.6-1.2,1.1-2.2,1.4-2.9-2.3-1.1-4.7-2.1-7-3.2C-354.611,157.632-356.011,158.632-355.911,159.832Z" fill="#161616" stroke="#161616" stroke-miterlimit="10" stroke-width="2"/>
          <path id="Path_75" data-name="Path 75" d="M-360.711,136.132a25.575,25.575,0,0,0-4.4,3.9,38.151,38.151,0,0,0-5,6.5,38.131,38.131,0,0,0-2.3,4.2,4.978,4.978,0,0,0,.6,1.7,6.812,6.812,0,0,0,1.7,1.7,14.754,14.754,0,0,1,1.8,1.9c1.1,1.1,2.6,1.9,5.5,3.5a47.4,47.4,0,0,0,6.3,3,18.406,18.406,0,0,0,1.8.6c.2-1,.5-2.1.8-3.2.3-1,.6-1.9.9-2.8-2.3-1.7-4.6-3.6-7-5.7-.8-.7-1.6-1.5-2.4-2.2.8-.9,1.9-2.2,3.2-3.5a18.953,18.953,0,0,1,2.3-2,32.42,32.42,0,0,1,5.9-3.7c.5-3.1-.1-6-1.8-6.9C-354.911,132.032-358.111,134.232-360.711,136.132Z" fill="#fff"/>
          <g id="Group_134" data-name="Group 134">
            <g id="Group_133" data-name="Group 133">
              <path id="Path_76" data-name="Path 76" d="M-362.911,137.732a37.615,37.615,0,0,0-9.2,11.7,9.384,9.384,0,0,0-.6,1.5,2.513,2.513,0,0,0,.6,1.4,15.458,15.458,0,0,0,2.4,2.7,30.705,30.705,0,0,0,6.2,4.5,83.6,83.6,0,0,0,8.6,3.9c.2.1.3-.2.1-.3-4.7-2-9.6-4-13.5-7.3a29.494,29.494,0,0,1-2.5-2.5,14.313,14.313,0,0,1-1.1-1.5,1.209,1.209,0,0,1-.3-1,3.7,3.7,0,0,1,.5-1.1,32.538,32.538,0,0,1,3.7-5.9,37.765,37.765,0,0,1,5.5-5.8c0-.2-.3-.4-.4-.3Z"/>
            </g>
          </g>
          <g id="Group_136" data-name="Group 136">
            <g id="Group_135" data-name="Group 135">
              <path id="Path_77" data-name="Path 77" d="M-353.811,141.432a36.622,36.622,0,0,0-9.5,8.9c-.1.2.2.3.3.2a35.731,35.731,0,0,1,9.4-8.8c.1-.1,0-.4-.2-.3Z"/>
            </g>
          </g>
          <g id="Group_138" data-name="Group 138">
            <g id="Group_137" data-name="Group 137">
              <path id="Path_78" data-name="Path 78" d="M-362.611,149.432q4.5,4.05,9.3,7.8c.2.1.4-.1.2-.2q-4.8-3.75-9.3-7.8c-.1-.1-.3.1-.2.2Z"/>
            </g>
          </g>
          <g id="Group_140" data-name="Group 140">
            <g id="Group_139" data-name="Group 139">
              <path id="Path_79" data-name="Path 79" d="M-353.211,157.232a41.773,41.773,0,0,0-1.6,5.8c0,.2.3.3.3.1a38.271,38.271,0,0,1,1.6-5.8c0-.2-.3-.3-.3-.1Z"/>
            </g>
          </g>
          <path id="Path_80" data-name="Path 80" d="M-356.611,140.232c-1.5.1-2.6,1.2-6,6-1.3,1.8-2.4,3.4-3.3,4.7,1.2.9,2.2,1.6,2.8,2,3.4,2.6,4.9,4,7.8,5.6a16.37,16.37,0,0,0,1.5.7c.2-.7.5-1.4.7-2-.8-.7-1.6-1.4-2.5-2.1-2.3-1.9-4.5-3.8-6.8-5.6a21.822,21.822,0,0,1,2.5-3,35.946,35.946,0,0,1,5.3-4.4,12.25,12.25,0,0,1,1.2-.8A4.625,4.625,0,0,0-356.611,140.232Z" fill="#494949" opacity="0.11" style="isolation: isolate"/>
          <path id="Path_81" data-name="Path 81" d="M-356.211,143.032a8.851,8.851,0,0,0-3.4,1.5,10.849,10.849,0,0,0-4.4,6.3l5.1,3.9q2.55,1.95,5.1,3.6c.2-.4.5-.7.7-1.1a71.567,71.567,0,0,1-7-5.8c-.8-.7-1.5-1.4-2.2-2.1l1.2-1.5A54.179,54.179,0,0,1-356.211,143.032Z" fill="#494949" opacity="0.08" style="isolation: isolate"/>
        </g>
        <g id="leg_left" data-name="leg left">
          <path id="Path_82" data-name="Path 82" d="M-335.911,156.332c1.1,1.1,2.3,2.2,3.4,3.2-.3,6.8.3,8.5.9,8.6.9.2,2.5-3,3.2-5.6a14.7,14.7,0,0,0,.5-4.8c-1.8-1.6-3.6-3.2-5.3-4.8C-334.111,154.132-335.011,155.232-335.911,156.332Z" fill="#161616" stroke="#161616" stroke-miterlimit="10" stroke-width="2"/>
          <path id="Path_83" data-name="Path 83" d="M-358.211,137.032a4.56,4.56,0,0,0,1.3,2.9,3.309,3.309,0,0,0,2.1.9c.3.1.7.3,1,.4a21.982,21.982,0,0,0,2.4,3.1,50.277,50.277,0,0,0,7.9,7.4c2.3,1.9,5.2,4.1,8.7,6.7a6.9,6.9,0,0,0,1.7-1.1,8.472,8.472,0,0,0,2.2-3.3l-2.6-2.6a117.21,117.21,0,0,1-10.4-12.4c-1.6-2.1-3.6-5-5.9-8.4C-354.911,132.032-358.311,134.732-358.211,137.032Z" fill="#fff"/>
          <g id="Group_142" data-name="Group 142">
            <g id="Group_141" data-name="Group 141">
              <path id="Path_84" data-name="Path 84" d="M-356.511,140.332c.9.3,1.7.6,2.6.9.2.1.3-.2.1-.3-.9-.3-1.7-.6-2.6-.9-.2-.1-.3.2-.1.3Z"/>
            </g>
          </g>
          <g id="Group_144" data-name="Group 144">
            <g id="Group_143" data-name="Group 143">
              <path id="Path_85" data-name="Path 85" d="M-354.311,140.932c4,5.5,9.3,10,14.7,14.2,1.6,1.2,3.1,2.4,4.7,3.5.2.1.3-.2.2-.3-5.4-4-10.9-8.1-15.5-13.1-1.3-1.4-2.6-3-3.8-4.5-.1-.2-.4,0-.3.2Z"/>
            </g>
          </g>
          <g id="Group_146" data-name="Group 146">
            <g id="Group_145" data-name="Group 145">
              <path id="Path_86" data-name="Path 86" d="M-348.011,133.432a126.743,126.743,0,0,0,12.8,16.4c1.4,1.5,2.8,2.9,4.2,4.3.2.2.4-.1.2-.2a127.428,127.428,0,0,1-13.6-15.8c-1.2-1.6-2.3-3.2-3.4-4.9,0-.1-.3,0-.2.2Z"/>
            </g>
          </g>
          <g id="Group_148" data-name="Group 148">
            <g id="Group_147" data-name="Group 147">
              <path id="Path_87" data-name="Path 87" d="M-331.211,153.932a7.19,7.19,0,0,1-3.6,4.4c-.2.1,0,.4.2.3a7.338,7.338,0,0,0,3.8-4.6.215.215,0,0,0-.4-.1Z"/>
            </g>
          </g>
          <path id="Path_88" data-name="Path 88" d="M-348.011,133.232a21.118,21.118,0,0,0-1.5-1.9,8.224,8.224,0,0,0-.9,3c-.1,3,2.1,4.3,8.4,11.2,2.7,3,4.2,4.8,7.7,8.5l2,2c.4-.7.8-1.4,1.2-2-3.4-3.4-6.1-6.5-8.1-8.9-1.9-2.3-3.7-4.5-5.5-7.1A42.423,42.423,0,0,0-348.011,133.232Z" fill="#494949" opacity="0.09" style="isolation: isolate"/>
          <path id="Path_89" data-name="Path 89" d="M-346.111,136.232a30.646,30.646,0,0,0,1.1,3.5c1.8,4.2,4.4,5.9,9.1,11.1.9,1,2.3,2.6,3.9,4.6a15.257,15.257,0,0,0,1.1-1.6c-.3-.3-.9-.8-1.6-1.5a141.99,141.99,0,0,1-10.9-12.5C-344.011,139.032-344.911,137.732-346.111,136.232Z" fill="#494949" opacity="0.09" style="isolation: isolate"/>
        </g>
        <g id="hand_right" data-name="hand right">
          <path id="Path_90" data-name="Path 90" d="M-392.211,124.332a1.416,1.416,0,0,0-.7.8,1.414,1.414,0,0,0,.3,1,.855.855,0,0,0-.3.6,1.108,1.108,0,0,0,.5.9.913.913,0,0,0-.2.8.6.6,0,0,0,.5.5,1.146,1.146,0,0,0,0,.6.873.873,0,0,0,.8.4,1.149,1.149,0,0,0,.9-.6,2.373,2.373,0,0,0,1.5.3,2.3,2.3,0,0,0,1.1-.4,11.771,11.771,0,0,0,1.9,2.5,10.761,10.761,0,0,0,4.4,3,9.382,9.382,0,0,0,6.5-.8,13.779,13.779,0,0,0,6.2-5.6,19.4,19.4,0,0,0,1.9-4.9c.6-2.3.4-3.2.2-3.7-.1-.3-.7-2.2-2.2-2.4a2.606,2.606,0,0,0-2.3,1,7.626,7.626,0,0,0-1.1,2.1,7.867,7.867,0,0,0-.4,1.2c-.7,2.3-1.1,3.4-1.1,3.6a9.335,9.335,0,0,1-2.3,3.3,7.264,7.264,0,0,1-3.5,1.4,6.214,6.214,0,0,1-3.5-.3,5.932,5.932,0,0,1-2.3-2.3,9.722,9.722,0,0,1-.7-3.1c-.1-1.1,0-1.9-.6-2.6a1.188,1.188,0,0,0-.7-.4c-.4.1-.7.9-.9,1.7-.2.6-.1.7-.3.9-.3.3-.7.2-2.1.2A4.276,4.276,0,0,0-392.211,124.332Z" fill="#fff"/>
          <g id="Group_150" data-name="Group 150">
            <g id="Group_149" data-name="Group 149">
              <path id="Path_91" data-name="Path 91" d="M-390.011,123.932c-1.2-.2-3.2.1-3,1.7.1,1.4,1.8,1.7,2.9,1.1.2-.1,0-.4-.2-.3-.8.5-2.4.4-2.4-.9,0-1.2,1.7-1.4,2.6-1.2.2-.1.3-.4.1-.4Z"/>
            </g>
          </g>
          <g id="Group_152" data-name="Group 152">
            <g id="Group_151" data-name="Group 151">
              <path id="Path_92" data-name="Path 92" d="M-392.811,126.132c-1.2,1.4,1.6,3.2,2.5,1.4.1-.2-.2-.4-.3-.2-.6,1.4-2.8,0-1.9-1,.1-.1-.1-.4-.3-.2Z"/>
            </g>
          </g>
          <g id="Group_154" data-name="Group 154">
            <g id="Group_153" data-name="Group 153">
              <path id="Path_93" data-name="Path 93" d="M-392.711,127.532a1.258,1.258,0,0,0,.5,1.6,1.1,1.1,0,0,0,1.5-.5c.1-.2-.2-.3-.3-.2a.841.841,0,0,1-1.1.4.841.841,0,0,1-.4-1.1c.2-.2-.1-.4-.2-.2Z"/>
            </g>
          </g>
          <g id="Group_156" data-name="Group 156">
            <g id="Group_155" data-name="Group 155">
              <path id="Path_94" data-name="Path 94" d="M-392.411,129.032a1.108,1.108,0,0,0,.9,1.2,1.086,1.086,0,0,0,1.2-.7c.1-.2-.2-.3-.3-.1a.715.715,0,0,1-.9.5.715.715,0,0,1-.5-.9c-.1-.2-.4-.2-.4,0Z"/>
            </g>
          </g>
          <g id="Group_158" data-name="Group 158">
            <g id="Group_157" data-name="Group 157">
              <path id="Path_95" data-name="Path 95" d="M-391.411,125.532a1.949,1.949,0,0,1,.8.1c.2.2.4.5.2.7-.1.2.2.3.3.2a.8.8,0,0,0-.2-1,1.314,1.314,0,0,0-1.2-.3c-.1,0-.1.3.1.3Z"/>
            </g>
          </g>
          <g id="Group_160" data-name="Group 160">
            <g id="Group_159" data-name="Group 159">
              <path id="Path_96" data-name="Path 96" d="M-390.411,129.632c.6-.2,1.1.3,1.7.2a6.119,6.119,0,0,0,1.2-.5c.2-.1,0-.4-.2-.3a2.007,2.007,0,0,1-1.7.4,2.079,2.079,0,0,0-1.1-.1c-.2.1-.1.4.1.3Z"/>
            </g>
          </g>
          <g id="Group_162" data-name="Group 162">
            <g id="Group_161" data-name="Group 161">
              <path id="Path_97" data-name="Path 97" d="M-390.111,124.232c.6.2,1.3.2,1.6-.4.2-.3.1-.8.1-1.1a1.991,1.991,0,0,1,.8-1.2c.2-.1-.1-.4-.2-.2a2.189,2.189,0,0,0-.8,1.4c-.1.3,0,.7-.1.9-.2.6-.8.5-1.3.3-.2-.1-.3.2-.1.3Z"/>
            </g>
          </g>
          <g id="Group_164" data-name="Group 164">
            <g id="Group_163" data-name="Group 163">
              <path id="Path_98" data-name="Path 98" d="M-387.811,121.532c.9.1,1,1.7,1.2,2.3.2.9.3,1.8.5,2.7a4.456,4.456,0,0,0,2.5,3.3,6.336,6.336,0,0,0,4.5.2,7.665,7.665,0,0,0,4.1-2.5c.1-.2-.1-.4-.2-.2a7.84,7.84,0,0,1-4.3,2.5,5.564,5.564,0,0,1-4.7-.8c-1.5-1.1-1.5-2.8-1.8-4.5a16.951,16.951,0,0,0-.5-2.4,1.438,1.438,0,0,0-1-1c-.4,0-.5.3-.3.4Z"/>
            </g>
          </g>
          <g id="Group_166" data-name="Group 166">
            <g id="Group_165" data-name="Group 165">
              <path id="Path_99" data-name="Path 99" d="M-388.111,129.632a23.483,23.483,0,0,0,4.3,4.6,7.621,7.621,0,0,0,5.7.9,13.8,13.8,0,0,0,9.3-6.8,16.484,16.484,0,0,0,2-6.4.15.15,0,1,0-.3,0,16.152,16.152,0,0,1-5.1,10.1,12.381,12.381,0,0,1-5.1,2.6,8.321,8.321,0,0,1-6-.5c-1.9-1.1-3.2-3.1-4.6-4.7-.1-.2-.3,0-.2.2Z"/>
            </g>
          </g>
          <g id="Group_168" data-name="Group 168">
            <g id="Group_167" data-name="Group 167">
              <path id="Path_100" data-name="Path 100" d="M-369.011,117.432a2.277,2.277,0,0,0-2.5.8,6.979,6.979,0,0,0-1.4,2.7c-.3,1.1-.6,2.3-1,3.4a22.109,22.109,0,0,1-1.8,3.4c-.1.2.2.3.3.2a19.46,19.46,0,0,0,2.5-5.5,15.1,15.1,0,0,1,1-3c.5-.9,1.6-2,2.8-1.6a.215.215,0,0,0,.1-.4Z"/>
            </g>
          </g>
          <g id="Group_170" data-name="Group 170">
            <g id="Group_169" data-name="Group 169">
              <path id="Path_101" data-name="Path 101" d="M-390.911,128.832c.3,0,.2.5.2.7-.1.2.2.3.3.1.1-.4,0-1.1-.5-1.1a.15.15,0,0,0,0,.3Z"/>
            </g>
          </g>
          <g id="Group_172" data-name="Group 172">
            <g id="Group_171" data-name="Group 171">
              <path id="Path_102" data-name="Path 102" d="M-390.811,127.832a.618.618,0,0,1-.2.7c-.2.1,0,.4.2.3a.951.951,0,0,0,.4-1c-.1-.3-.4-.2-.4,0Z"/>
            </g>
          </g>
          <g id="Group_174" data-name="Group 174">
            <g id="Group_173" data-name="Group 173">
              <path id="Path_103" data-name="Path 103" d="M-390.611,126.732c.3.1.1.6,0,.8s.2.3.3.2c.2-.3.4-1-.1-1.2-.2-.2-.4.1-.2.2Z"/>
            </g>
          </g>
          <path id="Path_104" data-name="Path 104" d="M-392.811,126.732c.2-.1.5.5,1.2.8a4.081,4.081,0,0,0,2.1,0c.5-.1,1.1-.2,1.9-.3a11.913,11.913,0,0,0,1.1,2.5,9.614,9.614,0,0,0,3.4,2.9,8.09,8.09,0,0,0,5.1.5,8.825,8.825,0,0,0,4.2-1.9c1.1-1,1.8-2.1,2.9-5.1a52.007,52.007,0,0,0,2.2-8.4,6.178,6.178,0,0,1,1.5,2.4,5.327,5.327,0,0,1,.2,2.7,13.705,13.705,0,0,1-2.6,6.4,13.759,13.759,0,0,1-5.4,4.8,11.311,11.311,0,0,1-5.5,1,6.929,6.929,0,0,1-2-.3,11.451,11.451,0,0,1-3.2-2.5,14.593,14.593,0,0,1-2-2.2c-.1-.2-.2-.3-.3-.5a1.4,1.4,0,0,1-.9.3c-.5,0-.7-.4-1.1-.3s-.4.4-.8.5a1.417,1.417,0,0,1-1.1-.1c-.2-.2-.3-.4-.5-1.5C-392.811,127.132-392.911,126.832-392.811,126.732Z" fill="#494949" opacity="0.11" style="isolation: isolate"/>
        </g>
        <g id="torso">
          <path id="Path_105" data-name="Path 105" d="M-370.311,117.632a36.159,36.159,0,0,0,1,4.6c1.3,4,2.8,5.8,4.7,10.4.5,1.2,1.2,2.9,1.9,5.1a13.663,13.663,0,0,0,6.5.5,13.69,13.69,0,0,0,8.3-4.9c-1.6-3-3.3-6.3-4.9-9.7q-2.4-5.25-4.2-9.9a11.544,11.544,0,0,0-6.9-.4A11.6,11.6,0,0,0-370.311,117.632Z" fill="#757575"/>
          <path id="Path_106" data-name="Path 106" d="M-360.911,112.932c.4.9.9,2,1.5,3.4a59.632,59.632,0,0,1,2.6,9.5,40.394,40.394,0,0,1,.2,12.4,8.135,8.135,0,0,0,3.3-.7,15.663,15.663,0,0,0,4.8-3.5l.7-.7c-.5-.8-1.2-2-2-3.6a112.442,112.442,0,0,1-5.2-11.4c-.5-1.1-1.1-2.7-1.8-4.6a19.381,19.381,0,0,0-2.2-.7C-359.711,113.032-360.411,112.932-360.911,112.932Z" fill="#494949" opacity="0.13" style="isolation: isolate"/>
          <path id="Path_107" data-name="Path 107" d="M-353.811,121.432c.2,1.9.3,3.5.4,4.7.4,4.5.5,5.8.5,6.6.1,1.9.1,3.5.1,4.5a8.906,8.906,0,0,0,2.4-1.2,8.253,8.253,0,0,0,2.3-2.3C-349.911,129.532-351.911,125.532-353.811,121.432Z" fill="#494949" opacity="0.1" style="isolation: isolate"/>
        </g>
        <g id="hand_left" data-name="hand left">
          <path id="Path_108" data-name="Path 108" d="M-361.411,111.032c-.5.2-.8.9-1,1.7a9.318,9.318,0,0,0-.1,3.3,19.231,19.231,0,0,0,1.1,4.1,18.189,18.189,0,0,0,2.5,4.7,7.554,7.554,0,0,0,2.8,2.5,4.422,4.422,0,0,0,3.9.5,3.59,3.59,0,0,0,2-2,3.778,3.778,0,0,0,.1-1.2v-1.7a11.054,11.054,0,0,0-.5-2.4c-.8-2.5-1.1-3.8-1.9-4.9-.7-.9-1.4-1.9-2.6-2.1a2.866,2.866,0,0,0-2.1.7,2.622,2.622,0,0,0-.5,1.8,5.638,5.638,0,0,0,1,2.7c.6,1,.8,1.2,1.5,2.4.9,1.7.8,1.8.8,1.9-.2.2-.9-.3-1.1-.5a2.651,2.651,0,0,1-.6-.5,8.209,8.209,0,0,1-1.3-2.3c-.4-.9-1-2.1-1.6-3.7a5.287,5.287,0,0,1,.7-1.5,3.359,3.359,0,0,0,.9-1.5v-.6a.471.471,0,0,0,.1-.6.61.61,0,0,0-.7-.3.646.646,0,0,0-.3-.5.854.854,0,0,0-.7,0,1.6,1.6,0,0,0-.8-.3,4.4,4.4,0,0,0-.9.1C-361.311,111.032-361.311,111.032-361.411,111.032Z" fill="#fff"/>
          <g id="Group_176" data-name="Group 176">
            <g id="Group_175" data-name="Group 175">
              <path id="Path_109" data-name="Path 109" d="M-358.711,115.532a12.81,12.81,0,0,1,1.1-2c.2-.3.4-.8.2-1.1-.6-.8-1.5.2-1.8.8-.1.2.2.3.3.2.2-.3.3-.7.7-.8a.187.187,0,0,1,.3,0c0,.2.1.5.1.7a1.332,1.332,0,0,1-.3.5l-.9,1.8c-.1,0,.2.1.3-.1Z"/>
            </g>
          </g>
          <g id="Group_178" data-name="Group 178">
            <g id="Group_177" data-name="Group 177">
              <path id="Path_110" data-name="Path 110" d="M-362.211,116.932a13.55,13.55,0,0,1-.1-3.5c.1-1.1.3-2.6,1.8-2.3.2,0,.3-.3.1-.3a1.83,1.83,0,0,0-2.1,1.6,14.209,14.209,0,0,0-.1,4.6.215.215,0,0,0,.4-.1Z"/>
            </g>
          </g>
          <g id="Group_180" data-name="Group 180">
            <g id="Group_179" data-name="Group 179">
              <path id="Path_111" data-name="Path 111" d="M-360.911,112.032a1.374,1.374,0,0,1,.5-.8c.4-.4.9-.2,1.3,0,.2.1.3-.2.2-.3a1.7,1.7,0,0,0-1.4-.2,2.258,2.258,0,0,0-.8,1.1c-.2.2.1.4.2.2Z"/>
            </g>
          </g>
          <g id="Group_182" data-name="Group 182">
            <g id="Group_181" data-name="Group 181">
              <path id="Path_112" data-name="Path 112" d="M-359.911,112.132c.4-.5.9-1.1,1.6-.6.2.1.3-.2.2-.3-.8-.5-1.5,0-2,.7-.2.1,0,.3.2.2Z"/>
            </g>
          </g>
          <g id="Group_184" data-name="Group 184">
            <g id="Group_183" data-name="Group 183">
              <path id="Path_113" data-name="Path 113" d="M-359.211,112.332a1.794,1.794,0,0,1,.7-.5c.3-.1.9-.1.8.5,0,.2.3.3.3.1a.779.779,0,0,0-.6-.9,1.513,1.513,0,0,0-1.4.7c-.2,0,0,.2.2.1Z"/>
            </g>
          </g>
          <g id="Group_186" data-name="Group 186">
            <g id="Group_185" data-name="Group 185">
              <path id="Path_114" data-name="Path 114" d="M-359.111,115.432c-.4.8.1,1.6.4,2.4a27.972,27.972,0,0,0,1.5,3c.8,1.3,2.4,3.5,4.1,2.2.2-.1,0-.4-.2-.3-1.6,1.3-3.2-1.3-3.8-2.4-.4-.7-.7-1.4-1.1-2.1-.3-.7-1-1.8-.7-2.6.2-.3-.1-.4-.2-.2Z"/>
            </g>
          </g>
          <g id="Group_188" data-name="Group 188">
            <g id="Group_187" data-name="Group 187">
              <path id="Path_115" data-name="Path 115" d="M-357.711,114.532c-.9,3.2,2,5.7,3,8.4.1.2.4.1.3-.1-1-2.7-3.9-5.2-3-8.3.1-.1-.3-.2-.3,0Z"/>
            </g>
          </g>
          <g id="Group_190" data-name="Group 190">
            <g id="Group_189" data-name="Group 189">
              <path id="Path_116" data-name="Path 116" d="M-362.611,116.832a18.847,18.847,0,0,0,3.7,8.3,7.7,7.7,0,0,0,3.4,2.8,5.048,5.048,0,0,0,4-.1c1.2-.8,1.4-2.4,1.5-3.8a.15.15,0,0,0-.3,0c-.1,1.7-.5,3.6-2.5,3.9a5.708,5.708,0,0,1-4.9-1.9,17.751,17.751,0,0,1-4.5-9.2c-.1-.3-.4-.2-.4,0Z"/>
            </g>
          </g>
          <g id="Group_192" data-name="Group 192">
            <g id="Group_191" data-name="Group 191">
              <path id="Path_117" data-name="Path 117" d="M-357.511,115.032c.3-1.4,2-1.5,3-.9a5.75,5.75,0,0,1,2.3,2.8,36.161,36.161,0,0,1,1.3,3.5,8.707,8.707,0,0,1,.5,4.2c0,.2.3.3.3.1a10.053,10.053,0,0,0-.7-4.8,18.886,18.886,0,0,0-1.8-4.1,4.766,4.766,0,0,0-3-2.4,2.183,2.183,0,0,0-2.4,1.5c.1.2.4.3.5.1Z"/>
            </g>
          </g>
          <path id="Path_118" data-name="Path 118" d="M-361.011,110.932a2.662,2.662,0,0,1,1.9.1,9.593,9.593,0,0,0-2,5.4,9.585,9.585,0,0,0,3,7.3c1.1,1.2,2.4,2.7,4.2,2.5a3.387,3.387,0,0,0,2.4-1.6c.5-.8.5-1.8-.1-4.2-.9-3.6-1.9-5.7-1.7-5.8a12.817,12.817,0,0,1,2.2,4,19.153,19.153,0,0,1,1.1,4.8,4.569,4.569,0,0,1-.3,2.9,4.265,4.265,0,0,1-1.7,1.5,4.584,4.584,0,0,1-3.1,0c-2.1-.7-3.2-2.4-4.4-4.2a20.814,20.814,0,0,1-2.7-7.2c-.3-1.5-.5-3.3.3-4.6A1.283,1.283,0,0,1-361.011,110.932Z" fill="#494949" opacity="0.1" style="isolation: isolate"/>
        </g>
        <g id="head">
          <path id="Path_119" data-name="Path 119" d="M-376.511,105.632a10.166,10.166,0,0,0,.5,2.2,11.525,11.525,0,0,0,2,4,5.165,5.165,0,0,0,3.2,2.2,5.108,5.108,0,0,0,2.7-.3,4.671,4.671,0,0,0,.5,1,7.07,7.07,0,0,0,1.7,2,2.788,2.788,0,0,0,1.8-.8,3.265,3.265,0,0,0,.9-1.4,2.607,2.607,0,0,0,.3-1.1,7.008,7.008,0,0,1-1-.8,4.611,4.611,0,0,1-1.4-3c.1-1.2.3-2.5.4-3.7a1.345,1.345,0,0,0,.8-.2,1.6,1.6,0,0,0,.5-1,2.265,2.265,0,0,0-.1-1.6c-.1-.3-.5-1.1-1.2-1.2a1.56,1.56,0,0,0-1.3.8,6.146,6.146,0,0,0-3.8-1.8C-373.111,100.732-376.311,103.232-376.511,105.632Z" fill="#fff"/>
          <path id="Path_120" data-name="Path 120" d="M-371.811,110.532c-.1.2.2.5.3.7a2.029,2.029,0,0,0,2,.1,2.459,2.459,0,0,0,1.3-1.7,1.8,1.8,0,0,0,0-1.6,1.678,1.678,0,0,0-.9-.7,5.566,5.566,0,0,1-.4.8c-.1.2-.2.3-.2.5a1.332,1.332,0,0,1-.3.5,3.48,3.48,0,0,1-1.4,1.1C-371.511,110.332-371.711,110.432-371.811,110.532Z"/>
          <g id="Group_194" data-name="Group 194">
            <g id="Group_193" data-name="Group 193">
              <path id="Path_121" data-name="Path 121" d="M-376.311,106.932c.8,2.6,1.9,5.7,4.6,7a4.5,4.5,0,0,0,3.6.1,4.983,4.983,0,0,0,2.5-3,11.022,11.022,0,0,0,.9-5.1.15.15,0,1,0-.3,0,10.908,10.908,0,0,1-1,5.3c-.7,1.6-1.9,2.9-3.8,2.9-3.8,0-5.3-4.2-6.3-7.2,0-.3-.3-.2-.2,0Z"/>
            </g>
          </g>
          <g id="Group_196" data-name="Group 196">
            <g id="Group_195" data-name="Group 195">
              <path id="Path_122" data-name="Path 122" d="M-365.911,103.232a.966.966,0,0,1,1.3-.8,1.7,1.7,0,0,1,1,1.3,2.917,2.917,0,0,1-.1,1.6.7.7,0,0,1-.8.6c-.2,0-.3-.1-.5-.1a.15.15,0,1,0,0,.3c.4,0,.7.2,1.1,0,.3-.1.4-.4.5-.7a3.312,3.312,0,0,0,0-2.4,1.624,1.624,0,0,0-1.6-1,1.278,1.278,0,0,0-1.1,1.2c-.1.2.2.2.2,0Z"/>
            </g>
          </g>
          <g id="Group_198" data-name="Group 198">
            <g id="Group_197" data-name="Group 197">
              <path id="Path_123" data-name="Path 123" d="M-365.311,109.032a6.06,6.06,0,0,0,2.1,4.6c.2.1.4-.1.2-.2a5.209,5.209,0,0,1-2-4.3.161.161,0,1,0-.3-.1Z"/>
            </g>
          </g>
          <g id="Group_200" data-name="Group 200">
            <g id="Group_199" data-name="Group 199">
              <path id="Path_124" data-name="Path 124" d="M-368.011,113.832a7.217,7.217,0,0,0,2,2.9c.2.1.4-.1.2-.2a6.665,6.665,0,0,1-1.9-2.8c-.1-.1-.4-.1-.3.1Z"/>
            </g>
          </g>
          <g id="Group_202" data-name="Group 202">
            <g id="Group_201" data-name="Group 201">
              <path id="Path_125" data-name="Path 125" d="M-366.011,116.932c.9.3,1.8-.5,2.4-1.1a3.021,3.021,0,0,0,.9-2.5c-.1-.2-.4-.1-.3.1a2.651,2.651,0,0,1-.8,2.2c-.5.6-1.3,1.3-2.1,1-.2-.1-.3.2-.1.3Z"/>
            </g>
          </g>
          <g id="Group_204" data-name="Group 204">
            <g id="Group_203" data-name="Group 203">
              <path id="Path_126" data-name="Path 126" d="M-375.111,105.832c-.1-.4.2-.8.4-1.1.4-.4.9-.6,1.3-.1a3.771,3.771,0,0,1,.7,2.1,2.514,2.514,0,0,0,.2,1.5,2.223,2.223,0,0,0,1.3.8c.2,0,.3-.3.1-.3-.3-.1-.5-.1-.7-.3a1.016,1.016,0,0,1-.5-1,4.868,4.868,0,0,0-.1-1.2,3.006,3.006,0,0,0-.8-1.9.965.965,0,0,0-1.4,0c-.4.4-.9,1.1-.7,1.6-.1.2.2.1.2-.1Z"/>
            </g>
          </g>
          <g id="Group_206" data-name="Group 206">
            <g id="Group_205" data-name="Group 205">
              <path id="Path_127" data-name="Path 127" d="M-372.211,103.532a1.306,1.306,0,0,1,2.4-.7c.1.2.4,0,.3-.2a1.631,1.631,0,0,0-3,.9.15.15,0,1,0,.3,0Z"/>
            </g>
          </g>
          <g id="Group_208" data-name="Group 208">
            <g id="Group_207" data-name="Group 207">
              <path id="Path_128" data-name="Path 128" d="M-373.611,106.632a.844.844,0,0,1-.2-.7.349.349,0,0,0-.2.1,1.012,1.012,0,0,1,.4.7c-.1.1,0,0,0-.1a.61.61,0,0,1-.3-.7.349.349,0,0,0-.2.1l.3.3c0,.1.1.1.1.2h0a.1.1,0,0,0-.1-.1c-.1-.2-.4,0-.3.2s.2.3.4.3a.265.265,0,0,0,.3-.3,1.05,1.05,0,0,0-.5-.9c-.1-.1-.2,0-.2.1a1.007,1.007,0,0,0,.6,1.1.215.215,0,0,0,.2-.2,1.231,1.231,0,0,0-.5-1c-.1-.1-.2,0-.2.1a1.135,1.135,0,0,0,.3.8c-.1.4.2.2.1,0Z"/>
            </g>
          </g>
          <g id="Group_210" data-name="Group 210">
            <g id="Group_209" data-name="Group 209">
              <path id="Path_129" data-name="Path 129" d="M-370.611,104.632c-.1-.1-.1-.1-.1-.2v-.2l.1.2v.2h.2a.755.755,0,0,1-.4-.7.349.349,0,0,0-.2.1.632.632,0,0,1,.4.8c.1,0,.1-.1.2-.1-.2-.1-.3-.2-.3-.4v-.1h-.1v.5a.31.31,0,0,1,.2-.1c0-.1-.1-.2-.1-.3-.1-.2-.4,0-.3.2l.3.3a.192.192,0,0,0,.3-.1.952.952,0,0,0-.2-.7.348.348,0,0,0-.5.1c-.2.4.2.8.5.9.1,0,.2,0,.2-.1a.948.948,0,0,0-.5-1.1c-.1-.1-.2,0-.2.1a1.016,1.016,0,0,0,.5,1c.1,0,.2,0,.2-.1a.637.637,0,0,0,0-.6c-.1-.2-.2-.3-.4-.3-.5.1-.3.7-.1.9s.4-.1.3-.2Z"/>
            </g>
          </g>
          <g id="Group_212" data-name="Group 212">
            <g id="Group_211" data-name="Group 211">
              <path id="Path_130" data-name="Path 130" d="M-367.811,113.832h0c.1,0,.1-.1.2-.1h0a.349.349,0,0,0,.1.2,3.988,3.988,0,0,0,.4-.3,2.652,2.652,0,0,0,.5-.6,6.375,6.375,0,0,0,.8-1.4c-.1,0-.2-.1-.3-.1-.3.9-.5,2.2-1.4,2.8l.2.2c.2-.3.4-.7.6-1,.1-.2-.1-.3-.3-.2a2.65,2.65,0,0,0-.5.6l.2.2c.2-.2.3-.4.5-.6.1-.2-.1-.3-.3-.2a1.756,1.756,0,0,1-.5.4.349.349,0,0,1,.2.1v-.1c0-.1-.4-.1-.4.1a.1.1,0,0,1,.1.1c0,.1.1.2.2.1a2.092,2.092,0,0,0,.6-.4c-.1-.1-.2-.1-.3-.2a2.181,2.181,0,0,1-.4.5c-.1.2.1.4.2.2a2.65,2.65,0,0,0,.5-.6c-.1-.1-.2-.1-.3-.2-.2.3-.4.7-.6,1-.1.1.1.3.2.2,1-.6,1.2-1.9,1.6-3,.1-.2-.2-.3-.3-.1a4.616,4.616,0,0,1-.9,1.5c-.2.2-.5.3-.6.5v.4c-.1.1,0,.2.1.2h0c.1,0,.2,0,.2-.1h0c.1-.2-.3-.3-.3-.1Z"/>
            </g>
          </g>
          <g id="Group_214" data-name="Group 214">
            <g id="Group_213" data-name="Group 213">
              <path id="Path_131" data-name="Path 131" d="M-366.611,113.532c.1-.1.2-.2.2-.3.1-.2-.2-.3-.3-.1-.2.3-.5.6-.7.9-.1.2.2.3.3.2.2-.3.5-.6.7-.9-.1,0-.2-.1-.3-.1,0,.1-.1.1-.1.2-.2,0,0,.2.2.1Z"/>
            </g>
          </g>
          <g id="Group_216" data-name="Group 216">
            <g id="Group_215" data-name="Group 215">
              <path id="Path_132" data-name="Path 132" d="M-371.611,110.832c-.3-.6,0-.8.6-1,.1,0,.2,0,.2-.1.3-.1.4-.4.5-.6a11.739,11.739,0,0,1,.5-1.1c.5-.7,1.3-.7,1.6.2a2.827,2.827,0,0,1-.6,2.5,3.915,3.915,0,0,1-1,.8,1.147,1.147,0,0,1-1-.1c-.3-.1-.7-.3-.8-.6-.1-.2-.4-.2-.3.1.1.6,1,.9,1.5,1a2.1,2.1,0,0,0,1.5-.5,3.221,3.221,0,0,0,1.1-3.3c-.5-1.3-1.8-.8-2.3.2-.2.3-.2.8-.5,1.1s-.7.2-1,.4a.948.948,0,0,0-.2,1.3c0,.1.3-.1.2-.3Z"/>
            </g>
          </g>
          <g id="Group_218" data-name="Group 218">
            <g id="Group_217" data-name="Group 217">
              <path id="Path_133" data-name="Path 133" d="M-371.811,110.532c1.7,0,2.5-1.6,2.8-3,.1-.2-.3-.3-.3-.1-.3,1.3-1,2.7-2.5,2.8a.15.15,0,0,0,0,.3Z"/>
            </g>
          </g>
          <path id="Path_134" data-name="Path 134" d="M-376.211,106.732c-.2.1-1.4-1.2-1.9-2.9a5.178,5.178,0,0,1-.1-3,7.1,7.1,0,0,1,.8-1.8,10.5,10.5,0,0,1,5.2-4.4,2.723,2.723,0,0,0-.8,1,5.482,5.482,0,0,0-.8,1.5l1.2-.9a12.981,12.981,0,0,1,2.8-1.5c-.1.5-.3,1.1-.4,1.6.3-.2.7-.4,1.2-.7.6-.3,1.7-.8,1.9-.6.1.1,0,.2-.1.5a5.755,5.755,0,0,0-.2,1,3.75,3.75,0,0,1,1.1-.1h1.2c-.1.5-.3,1-.4,1.5a3.744,3.744,0,0,1,1,.6,4.083,4.083,0,0,1,1.4,2.4,4.112,4.112,0,0,1-.3,2.4,1.928,1.928,0,0,0-2.1-1.3,1.213,1.213,0,0,0-.7,1.2.367.367,0,0,0,.1.3,9.531,9.531,0,0,0-1.7-1.2,9.525,9.525,0,0,0-2.7-1.1,5.618,5.618,0,0,0-4.1,1.2,3.922,3.922,0,0,0-1.9,2.4A5.945,5.945,0,0,0-376.211,106.732Z" fill="#2b2b2b"/>
          <path id="Path_135" data-name="Path 135" d="M-368.111,102.032a14.061,14.061,0,0,1,1,3.4,9.171,9.171,0,0,1-.2,5.4,8,8,0,0,1-2.4,3.3,3.73,3.73,0,0,0,1.6-.4,3.848,3.848,0,0,0,1.7-1.8,8.251,8.251,0,0,1,1.7,2.4,6.974,6.974,0,0,1,.6,1.7,4.113,4.113,0,0,0,1.1-1.7,3.056,3.056,0,0,0,.1-.9,4.413,4.413,0,0,1-1.2-1,4.375,4.375,0,0,1-1-3c0-.6.2-.6.2-1.5a13.183,13.183,0,0,0,0-2,1.117,1.117,0,0,0,1,0c.2-.2.3-.4.5-1.8.1-.7.2-1.1.2-1.3a7.511,7.511,0,0,0,.1-2,3.586,3.586,0,0,0-1.2-2.2,3.548,3.548,0,0,0-1.2-.8,7.366,7.366,0,0,1,.4-1.4,10.158,10.158,0,0,1-1.6,1.5,24.39,24.39,0,0,0-2.2,1.7,7.844,7.844,0,0,0-1,1.6C-369.211,101.532-368.611,101.832-368.111,102.032Z" fill="#494949" opacity="0.11" style="isolation: isolate"/>
          <path id="Path_136" data-name="Path 136" d="M-372.111,95.032a4.627,4.627,0,0,0-2.1,1.2,3.284,3.284,0,0,0-.8,1.5,3.509,3.509,0,0,0-.1,2,8.179,8.179,0,0,1,1.7-3.6C-372.911,95.732-372.511,95.332-372.111,95.032Z" fill="#494949" opacity="0.17" style="isolation: isolate"/>
          <path id="Path_137" data-name="Path 137" d="M-364.911,105.932a2.769,2.769,0,0,0-.3.9c-.3,1.1-.5,1.9-.6,2.3a13.257,13.257,0,0,1-.8,2.4,18.456,18.456,0,0,0,2.3.4,7.434,7.434,0,0,1-.7-2.6A13.344,13.344,0,0,1-364.911,105.932Z" fill="#494949" opacity="0.08" style="isolation: isolate"/>
        </g>
      </g>
    </g>
    <g id="Group_221" data-name="Group 221" transform="translate(1054.811 112.968)" opacity="0.49">
      <circle id="Ellipse_13" data-name="Ellipse 13" cx="12.5" cy="12.5" r="12.5" transform="translate(-411.811 98.032)" fill="#161616" stroke="#161616" stroke-miterlimit="10" stroke-width="2"/>
    </g>
    <g id="Group_462" data-name="Group 462" transform="translate(580.627 45.579)">
      <path id="Path_283" data-name="Path 283" d="M364.131,251.7h0Z" transform="translate(-283.875 -75.275)" fill="#fff" fill-rule="evenodd"/>
      <g id="Group_461" data-name="Group 461" transform="translate(65.7 172.6)">
        <path id="Path_926" data-name="Path 926" d="M75.308,175.2H73.543l-2.224,6.644-2.2-6.644H67.354L65.7,184.726h1.77l1.049-6.016,2.012,6.016h1.591l2.031-6.016.285,1.707,1.252-3.075Z" transform="translate(-65.7 -175.074)" fill="#fff"/>
        <path id="Path_284" data-name="Path 284" d="M228.546,176.4h-.513l-1.427.053-.116-.276-.015-.034-.019-.058c-.111-.247-.227-.493-.338-.745-.015-.015-.015-.058-.053-.1a1.974,1.974,0,0,0-.077.247l-1.939,4.976c-.208.551-.4,1.122-.609,1.668a.138.138,0,0,1-.15.111H221.5c.1-.247.174-.474.266-.706,1.122-2.94,2.239-5.861,3.361-8.806a.171.171,0,0,1,.189-.135h1.692C227.54,173.9,228.047,175.153,228.546,176.4Z" transform="translate(-213.966 -172.6)" fill="#fff" fill-rule="evenodd"/>
      </g>
      <path id="Path_285" data-name="Path 285" d="M324.872,247.05a.044.044,0,0,1-.014-.034l-.043-.082-.015-.034Z" transform="translate(-246.571 -70.707)" fill="#fff" fill-rule="evenodd"/>
      <path id="Path_286" data-name="Path 286" d="M324.872,247.05a.044.044,0,0,1-.014-.034l-.043-.082-.015-.034Z" transform="translate(-246.571 -70.707)" fill="#fff" fill-rule="evenodd"/>
      <path id="Path_287" data-name="Path 287" d="M309.235,261.578l.8,2-1.954-.019-.761-1.943-1.865.038-.759-1.813,1.918-.027-.68-1.738L307.8,258l.718,1.789,1.705-.024.663,1.78Z" transform="translate(-227.443 -81.27)" fill="#fff" fill-rule="evenodd"/>
    </g>
  </g>
</svg>
