<?xml version="1.0" encoding="UTF-8"?>
<svg xmlns="http://www.w3.org/2000/svg" xmlns:xlink="http://www.w3.org/1999/xlink" width="20pt" height="11pt" viewBox="0 0 20 11" version="1.1">
<g id="surface1">
<path style=" stroke:none;fill-rule:nonzero;fill:rgb(100%,100%,100%);fill-opacity:1;" d="M 10.894531 0.0976562 L 8.898438 0.0976562 L 6.382812 7.636719 L 3.894531 0.0976562 L 1.894531 0.0976562 L 0.0273438 10.914062 L 2.023438 10.914062 L 3.207031 4.082031 L 5.480469 10.914062 L 7.285156 10.914062 L 9.585938 4.082031 L 9.90625 6.023438 L 11.324219 2.53125 Z M 10.894531 0.0976562 "/>
<path style=" stroke:none;fill-rule:evenodd;fill:rgb(100%,100%,100%);fill-opacity:1;" d="M 16.394531 4.277344 L 16.203125 4.277344 C 15.578125 4.277344 14.933594 4.277344 14.3125 4.277344 C 14.246094 4.277344 14.160156 4.234375 14.140625 4.167969 L 14.054688 3.996094 L 14.03125 3.933594 C 13.902344 3.652344 13.773438 3.371094 13.644531 3.09375 C 13.625 3.070312 13.625 3.027344 13.582031 2.984375 C 13.539062 3.09375 13.515625 3.179688 13.496094 3.265625 L 11.304688 8.910156 C 11.066406 9.535156 10.851562 10.179688 10.617188 10.804688 C 10.59375 10.890625 10.53125 10.933594 10.445312 10.933594 C 9.820312 10.933594 9.175781 10.933594 8.554688 10.933594 L 8.425781 10.933594 C 8.53125 10.65625 8.617188 10.394531 8.726562 10.136719 C 9.992188 6.796875 11.261719 3.480469 12.527344 0.140625 C 12.570312 0.03125 12.613281 -0.0117188 12.742188 -0.0117188 C 13.386719 -0.0117188 14.011719 -0.0117188 14.65625 -0.0117188 C 15.257812 1.433594 15.835938 2.855469 16.394531 4.277344 Z M 16.394531 4.277344 "/>
<path style=" stroke:none;fill-rule:evenodd;fill:rgb(100%,100%,100%);fill-opacity:1;" d="M 16.222656 4.296875 L 14.246094 4.386719 L 14.097656 4.039062 L 14.183594 4.210938 C 14.203125 4.277344 14.269531 4.320312 14.355469 4.320312 C 14.957031 4.296875 15.601562 4.296875 16.222656 4.296875 Z M 16.222656 4.296875 "/>
<path style=" stroke:none;fill-rule:evenodd;fill:rgb(100%,76.078431%,0%);fill-opacity:1;" d="M 14.375 4.730469 L 16.480469 4.644531 L 19.015625 10.976562 L 16.804688 10.957031 Z M 14.375 4.730469 "/>
<path style=" stroke:none;fill-rule:evenodd;fill:rgb(100%,76.078431%,0%);fill-opacity:1;" d="M 12.980469 6.734375 L 19.230469 6.648438 L 19.984375 8.671875 L 13.839844 8.800781 Z M 12.980469 6.734375 "/>
</g>
</svg>
